<mxfile host="app.diagrams.net" modified="2021-08-29T15:20:38.535Z" agent="5.0 (Windows NT 10.0; Win64; x64) AppleWebKit/537.36 (KHTML, like Gecko) Chrome/92.0.4515.159 Safari/537.36" etag="8I7JBbIV9S7VDlzfbJyK" version="15.0.3" type="github">
  <diagram id="jnp06B8WLFY1FdfgPjeT" name="第 1 页">
    <mxGraphModel dx="2062" dy="1177" grid="1" gridSize="10" guides="1" tooltips="1" connect="1" arrows="1" fold="1" page="1" pageScale="1" pageWidth="827" pageHeight="1169" math="0" shadow="0">
      <root>
        <mxCell id="0" />
        <mxCell id="1" parent="0" />
        <mxCell id="YHWm_DfwfcvUflsxwQm8-1" value="&lt;font style=&quot;font-size: 20px&quot;&gt;&lt;b&gt;原始数据&lt;/b&gt;&lt;/font&gt;" style="rounded=1;whiteSpace=wrap;html=1;fillColor=#2AFADF;gradientColor=#4C83FF;" vertex="1" parent="1">
          <mxGeometry y="445" width="120" height="120" as="geometry" />
        </mxCell>
        <mxCell id="YHWm_DfwfcvUflsxwQm8-2" value="" style="rounded=1;whiteSpace=wrap;html=1;fillColor=#dae8fc;strokeColor=#6c8ebf;gradientColor=#7ea6e0;" vertex="1" parent="1">
          <mxGeometry x="180" y="330" width="140" height="350" as="geometry" />
        </mxCell>
        <mxCell id="YHWm_DfwfcvUflsxwQm8-3" value="&lt;font style=&quot;font-size: 25px&quot;&gt;&lt;b&gt;STEP 1&lt;/b&gt;&lt;/font&gt;" style="text;html=1;strokeColor=none;fillColor=none;align=center;verticalAlign=middle;whiteSpace=wrap;rounded=0;" vertex="1" parent="1">
          <mxGeometry x="202.5" y="340" width="95" height="20" as="geometry" />
        </mxCell>
        <mxCell id="YHWm_DfwfcvUflsxwQm8-4" value="&lt;font style=&quot;font-size: 20px&quot;&gt;&lt;b&gt;增加的数据&lt;/b&gt;&lt;/font&gt;" style="ellipse;whiteSpace=wrap;html=1;aspect=fixed;rounded=1;fillColor=#C2FFD8;gradientColor=#465EFB;gradientDirection=south;" vertex="1" parent="1">
          <mxGeometry x="210" y="380" width="80" height="80" as="geometry" />
        </mxCell>
        <mxCell id="YHWm_DfwfcvUflsxwQm8-7" value="&lt;font style=&quot;font-size: 20px&quot;&gt;&lt;b&gt;修改的数据&lt;/b&gt;&lt;/font&gt;" style="ellipse;whiteSpace=wrap;html=1;aspect=fixed;rounded=1;fillColor=#C2FFD8;gradientColor=#465EFB;gradientDirection=south;" vertex="1" parent="1">
          <mxGeometry x="210" y="480" width="80" height="80" as="geometry" />
        </mxCell>
        <mxCell id="YHWm_DfwfcvUflsxwQm8-8" value="&lt;font style=&quot;font-size: 20px&quot;&gt;&lt;b&gt;删除的数据&lt;/b&gt;&lt;/font&gt;" style="ellipse;whiteSpace=wrap;html=1;aspect=fixed;rounded=1;fillColor=#C2FFD8;gradientColor=#465EFB;gradientDirection=south;" vertex="1" parent="1">
          <mxGeometry x="210" y="584.5" width="80" height="80" as="geometry" />
        </mxCell>
      </root>
    </mxGraphModel>
  </diagram>
</mxfile>
